<mxfile host="app.diagrams.net" modified="2023-04-11T03:38:05.425Z" agent="Mozilla/5.0 (X11; Linux x86_64; rv:109.0) Gecko/20100101 Firefox/111.0" version="21.1.4" etag="7QriB_86G7yl-O5-wvib" type="github">
  <diagram name="Page-1" id="Vi2x37YBowM7Mk-DX7QZ">
    <mxGraphModel>
      <root>
        <mxCell id="0" />
        <mxCell id="1" parent="0" />
      </root>
    </mxGraphModel>
  </diagram>
</mxfile>
